<svg width="114" height="40" viewBox="0 0 114 40" xmlns="http://www.w3.org/2000/svg">
    <g fill="#000" fill-rule="evenodd">
        <path d="M22.931 35.017c.182 2.63-1.067 4.86-2.79 4.978-1.722.119-3.265-1.917-3.446-4.548-.182-2.63 1.067-4.86 2.79-4.978 1.722-.12 3.265 1.917 3.446 4.548M5.084 33.53c-1.253-.595-1.286-3.147-.075-5.7 1.21-2.553 3.207-4.141 4.46-3.546 1.252.595 1.286 3.147.075 5.7-1.21 2.553-3.207 4.14-4.46 3.546M.017 14.214c.214-.995 2.349-1.381 4.77-.862 2.421.52 4.211 1.747 3.998 2.743-.213.995-2.349 1.38-4.77.862-2.421-.52-4.211-1.748-3.998-2.743M11.275.032c.593-.287 2.004 1.405 3.151 3.778 1.147 2.375 1.596 4.531 1.004 4.818-.593.287-2.004-1.405-3.151-3.778C11.132 2.476 10.682.319 11.275.032m18.769 1.344c.442.366-.389 2.099-1.854 3.872-1.466 1.772-3.013 2.912-3.455 2.547-.441-.366.389-2.1 1.855-3.872 1.465-1.773 3.012-2.914 3.454-2.547m4.921 9.678a4.77 4.77 0 0 1 5.647 3.696 4.771 4.771 0 1 1-9.34 1.955 4.775 4.775 0 0 1 3.693-5.651m.242 15.124c2.08 1.722 2.585 4.546 1.13 6.307-1.457 1.76-4.324 1.792-6.403.07-2.08-1.723-2.585-4.546-1.13-6.308 1.457-1.76 4.324-1.791 6.403-.07"/>
        <g fill-rule="nonzero">
            <path d="M52.42 8.5h2.204v17.774h9.466v2.006H52.42zM72.68 28.676c-1.45 0-2.712-.349-3.786-1.046a6.81 6.81 0 0 1-2.444-2.727 7.881 7.881 0 0 1-.834-3.546 7.67 7.67 0 0 1 .862-3.546 7.023 7.023 0 0 1 2.473-2.727c1.073-.697 2.317-1.046 3.73-1.046 1.45 0 2.712.349 3.786 1.046a7.023 7.023 0 0 1 2.473 2.727 7.67 7.67 0 0 1 .861 3.546 7.67 7.67 0 0 1-.861 3.546 7.023 7.023 0 0 1-2.473 2.727c-1.074.697-2.336 1.046-3.786 1.046zm0-1.95c.961 0 1.818-.235 2.572-.706a4.873 4.873 0 0 0 1.766-1.936c.424-.82.636-1.728.636-2.727 0-1.017-.212-1.93-.636-2.74a4.897 4.897 0 0 0-1.766-1.922c-.754-.471-1.61-.707-2.571-.707-.961 0-1.814.236-2.558.707a4.829 4.829 0 0 0-1.738 1.921c-.414.81-.621 1.724-.621 2.741 0 .999.207 1.908.621 2.727.415.82.999 1.465 1.752 1.936.754.47 1.602.706 2.544.706zM89.466 28.676c-1.451 0-2.713-.349-3.787-1.046a6.81 6.81 0 0 1-2.444-2.727 7.881 7.881 0 0 1-.834-3.546 7.67 7.67 0 0 1 .862-3.546 7.023 7.023 0 0 1 2.473-2.727c1.073-.697 2.317-1.046 3.73-1.046 1.45 0 2.712.349 3.786 1.046a7.023 7.023 0 0 1 2.473 2.727 7.67 7.67 0 0 1 .861 3.546 7.67 7.67 0 0 1-.861 3.546 7.023 7.023 0 0 1-2.473 2.727c-1.074.697-2.336 1.046-3.786 1.046zm0-1.95c.96 0 1.817-.235 2.571-.706a4.873 4.873 0 0 0 1.766-1.936c.424-.82.636-1.728.636-2.727 0-1.017-.212-1.93-.636-2.74a4.897 4.897 0 0 0-1.766-1.922c-.754-.471-1.61-.707-2.571-.707-.961 0-1.814.236-2.558.707a4.829 4.829 0 0 0-1.738 1.921c-.414.81-.621 1.724-.621 2.741 0 .999.207 1.908.621 2.727.415.82.999 1.465 1.752 1.936.754.47 1.602.706 2.544.706zM106.872 14.067c1.338 0 2.506.353 3.504 1.06a6.895 6.895 0 0 1 2.289 2.74 8.167 8.167 0 0 1 .791 3.518c0 1.244-.25 2.421-.749 3.533a6.533 6.533 0 0 1-2.232 2.712c-.99.697-2.19 1.046-3.603 1.046-1.074 0-2.016-.217-2.826-.65a6.075 6.075 0 0 1-2.034-1.752v7.94h-2.148v-19.78h1.809l.282 2.063a5.89 5.89 0 0 1 1.992-1.752c.82-.452 1.795-.678 2.925-.678zm-.226 1.921c-.923 0-1.738.231-2.444.693-.707.461-1.253 1.102-1.64 1.921-.385.82-.578 1.747-.578 2.783 0 1.583.428 2.873 1.285 3.872.857.998 1.983 1.497 3.377 1.497.904 0 1.71-.23 2.416-.692.707-.462 1.258-1.097 1.653-1.907.396-.81.594-1.733.594-2.77 0-1.036-.198-1.963-.594-2.783-.395-.82-.946-1.46-1.653-1.921-.706-.462-1.512-.693-2.416-.693z"/>
        </g>
    </g>
</svg>
