<svg width="16" height="16" viewBox="0 0 16 16" xmlns="http://www.w3.org/2000/svg"
    xmlns:xlink="http://www.w3.org/1999/xlink">
    <path xmlns="http://www.w3.org/2000/svg" d="M13.828 1.333a.557.557 0 0 1 .419.924L9.694 7.46l5.093 6.733a1 1 0 0 1-.797 1.603h-2.433a1 1 0 0 1-.795-.393L7.196 10.74l-3.617 4.132a2.705 2.705 0 0 1-2.036.924.557.557 0 0 1-.419-.924L6.05 9.243l-4.82-6.302a1 1 0 0 1 .795-1.608h2.541a1 1 0 0 1 .798.397l3.195 4.225 3.235-3.698a2.703 2.703 0 0 1 2.035-.924zM11.74 14.327h1.36L4.323 2.725H2.865l8.875 11.602z" fill="#fff" fill-rule="evenodd" opacity=".7"/>
</svg>