<svg id="Layer_1" data-name="Layer 1" xmlns="http://www.w3.org/2000/svg" xmlns:xlink="http://www.w3.org/1999/xlink" viewBox="0 0 104 104"><defs><linearGradient id="linear-gradient" x1="70.82" y1="8.82" x2="26.79" y2="80.39" gradientTransform="matrix(1, 0, 0, -1, 0, 105)" gradientUnits="userSpaceOnUse"><stop offset="0.33" stop-color="#3fb0ff"/><stop offset="0.72" stop-color="#9236ea"/><stop offset="1" stop-color="#f29a6b"/></linearGradient><linearGradient id="linear-gradient-2" x1="75.06" y1="11.42" x2="31.02" y2="82.99" xlink:href="#linear-gradient"/><linearGradient id="linear-gradient-3" x1="79.28" y1="14.02" x2="35.25" y2="85.59" xlink:href="#linear-gradient"/></defs><circle id="Oval" cx="52" cy="52" r="52" style="fill:#050505"/><path d="M27,58.06l-5.33,7.82L22,68.77l6.93,5.36S36.45,80,40.51,80.55C41.85,80.74,54.58,71,63,66.64a88.21,88.21,0,0,1,10.85-4.88l8.77,1.7L65.92,47.76S53.86,55.08,51,58.05s-10.49,8.32-10.49,8.32l-8.2-2.44L27,58.05Z" style="fill:url(#linear-gradient)"/><path d="M32.88,43.86l-5,7.37,4.89,5.65,7.5,2.29,12.3-10.26,7.24-4.1,5.06-2.22-7.72-6.22S47.48,37,44,41.25c0,0-6.75,6.41-7.84,5.58l-3.25-3Z" style="fill:url(#linear-gradient-2)"/><path d="M45,23.06,33.64,38.16s2.09,3.09,3.26,2.44,6.12-5.66,8.28-6.66c4.31-2,2.4-1.41,7.36-2.68l3.53.61Z" style="fill:url(#linear-gradient-3)"/></svg>