<svg id="Layer_1" data-name="Layer 1" xmlns="http://www.w3.org/2000/svg" viewBox="0 0 104 104"><circle id="Oval-Copy-7" cx="52" cy="52" r="52" style="fill:#fff"/><g id="kelp"><path id="Path" d="M61.83,23.14l-9.26,5.24A5.33,5.33,0,0,0,52,37.29l9.46,7.06a3.33,3.33,0,0,1-.35,5.56l-8.54,4.83A5.33,5.33,0,0,0,52,63.65l9,6.69a3.69,3.69,0,0,1,1.49,3v.27a1.1,1.1,0,0,0,1.65,1l9.31-5.3A5.33,5.33,0,0,0,74,60.31l-9.45-7a3.33,3.33,0,0,1,.32-5.57l8.63-4.93A5.33,5.33,0,0,0,74,34L65,27.3a3.71,3.71,0,0,1-1.5-3v-.22A1.1,1.1,0,0,0,61.83,23.14Z" transform="translate(-1 -1)" style="fill:#075a5a"/><path id="Path-2" data-name="Path" d="M41.52,31.46,32.26,36.7a5.33,5.33,0,0,0-.57,8.91l9.46,7.06a3.32,3.32,0,0,1-.35,5.56l-8.53,4.83A5.33,5.33,0,0,0,31.71,72l9,6.69a3.7,3.7,0,0,1,1.48,3v.27a1.1,1.1,0,0,0,1.65,1l9.31-5.3a5.33,5.33,0,0,0,.52-8.92l-9.45-6.95a3.33,3.33,0,0,1,.32-5.57l8.63-4.93a5.33,5.33,0,0,0,.52-8.91l-9-6.65a3.7,3.7,0,0,1-1.49-3v-.22A1.11,1.11,0,0,0,41.52,31.46Z" transform="translate(-1 -1)" style="fill:#075a5a"/></g></svg>