<svg id="Layer_1" data-name="Layer 1" xmlns="http://www.w3.org/2000/svg" xmlns:xlink="http://www.w3.org/1999/xlink" viewBox="0 0 104 104"><defs><style>.cls-1{fill:url(#linear-gradient);}</style><linearGradient id="linear-gradient" x1="-267.67" y1="448.31" x2="-267.31" y2="447.76" gradientTransform="matrix(68.22, 0, 0, -64, 18302.64, 28730)" gradientUnits="userSpaceOnUse"><stop offset="0.07" stop-color="#874fff"/><stop offset="0.46" stop-color="#36afe2"/><stop offset="0.86" stop-color="#41ff54"/></linearGradient></defs><circle id="Oval-Copy-7" cx="52" cy="52" r="52"/><g id="Group"><path id="Combined-Shape" class="cls-1" d="M56.79,25.67l.16,2a1.21,1.21,0,0,1,0,.19A24.93,24.93,0,0,1,62.52,29a.51.51,0,0,1,.07-.17L63.5,27a.88.88,0,0,1,1.64.6l-.48,2a.64.64,0,0,1-.06.18,25.13,25.13,0,0,1,5,2.75l.12-.14,1.43-1.47A.88.88,0,0,1,72.5,32l-1.07,1.75-.1.14a25.07,25.07,0,0,1,4.21,4.62v-.53a1.73,1.73,0,0,1,1.6-1.58,1.83,1.83,0,0,1,2,1.13,6.25,6.25,0,0,1,.24,3.87l-.06.23,0,.13v.05l0,.11A6.43,6.43,0,0,1,82,45a1.91,1.91,0,0,1-1,2.57,1.64,1.64,0,0,1-1.45-.07,24.47,24.47,0,0,1,.62,5.28h.16l2,.3a.88.88,0,0,1-.06,1.75l-2,.16H80.1A25.51,25.51,0,0,1,79,60.56l.14.06,1.83.91a.88.88,0,0,1-.6,1.65l-2-.48-.14-.05a25.44,25.44,0,0,1-2.75,5l.11.09,1.46,1.44A.88.88,0,0,1,76,70.54l-1.74-1.07-.12-.09A24.72,24.72,0,0,1,70,73.27l.07.12,1,1.81a.88.88,0,0,1-1.45,1l-1.33-1.55a.83.83,0,0,1-.08-.12A25.87,25.87,0,0,1,64,76.57l-1,.35,0,.13.34,2a.88.88,0,0,1-1.68.49l-.78-1.9a.5.5,0,0,1,0-.13,24.28,24.28,0,0,1-5.65.7.66.66,0,0,1,0,.14l-.3,2a.88.88,0,0,1-1.75-.06l-.16-2v-.14a25.06,25.06,0,0,1-5.58-1.09l-.06.13L46.43,79a.88.88,0,0,1-1.64-.6l.48-2a.74.74,0,0,1,0-.14,26,26,0,0,1-5-2.75l-.09.1-1.43,1.47A.88.88,0,0,1,37.43,74l1.07-1.75a.44.44,0,0,1,.08-.11A25.15,25.15,0,0,1,34.7,68l-.12.08L32.76,69a.88.88,0,0,1-1-1.45l1.56-1.33.12-.09a24.67,24.67,0,0,1-1.66-3.24l-3.55,4.71a1,1,0,0,1-1.59.07c-3.43-4.12-3.8-9.67-3.44-12.94A1,1,0,0,1,24.64,54L30,56.23a25.19,25.19,0,0,1-.21-3H29.6l-2-.3a.88.88,0,0,1,.06-1.75l2-.16h.17a25.17,25.17,0,0,1,1.09-5.58.52.52,0,0,1-.16-.06l-1.83-.91a.88.88,0,0,1,.6-1.65l2,.48a.76.76,0,0,1,.16.06,25.69,25.69,0,0,1,2.76-5l-.14-.11-1.46-1.44a.88.88,0,0,1,1.08-1.38l1.74,1.07.14.11A25.49,25.49,0,0,1,40,32.77a.86.86,0,0,1-.1-.16l-.95-1.81a.88.88,0,0,1,1.45-1l1.33,1.55a.91.91,0,0,1,.11.16,24.7,24.7,0,0,1,4.16-2q.49-.19,1-.36a1.21,1.21,0,0,1-.05-.18l-.34-2a.88.88,0,0,1,1.68-.49l.78,1.9a.64.64,0,0,1,.06.18,24.81,24.81,0,0,1,5.64-.7.62.62,0,0,1,0-.19l.3-2A.88.88,0,0,1,56.79,25.67ZM75.28,45.38a16.17,16.17,0,0,1-4.94,2.93A40.56,40.56,0,0,1,60.2,50.8c-3.09,4.24-8.33,6-10.87,6.37l.32-6.35a26.28,26.28,0,0,0-5.5.82,43.41,43.41,0,0,0-10.67,4.44,21.3,21.3,0,0,0,1.21,4.69A21.7,21.7,0,0,0,75.28,45.38ZM56.43,67.64a1.91,1.91,0,1,1-1.55,2.21A1.91,1.91,0,0,1,56.43,67.64Zm-5.94,1a1.24,1.24,0,1,1-1.44-1A1.24,1.24,0,0,1,50.49,68.69Zm13.09-3a1.24,1.24,0,1,1-1,1.44A1.24,1.24,0,0,1,63.58,65.65ZM43.76,63.42a1.25,1.25,0,0,1,1.45,1,1.25,1.25,0,1,1-2.46.43A1.24,1.24,0,0,1,43.76,63.42Zm12.18.4a1.24,1.24,0,1,1-1.44-1A1.24,1.24,0,0,1,55.94,63.82Zm11.2-5.88a1.91,1.91,0,1,1-1.55,2.22A1.91,1.91,0,0,1,67.14,57.94ZM50.05,60.11a1.25,1.25,0,1,1-1.45-1A1.24,1.24,0,0,1,50.05,60.11Zm-8.28-1a1.91,1.91,0,1,1-2.21-1.54A1.9,1.9,0,0,1,41.77,59.1Zm19.48.57a1.25,1.25,0,1,1-1.45-1A1.25,1.25,0,0,1,61.25,59.67ZM65.9,38.13a3.13,3.13,0,1,0,3.61,2.38A3.06,3.06,0,0,0,65.9,38.13Zm.82,1.6a1.57,1.57,0,1,1-1,1.81A1.46,1.46,0,0,1,66.72,39.73Z" transform="translate(-1 -1)"/></g></svg>