<svg id="Layer_1" data-name="Layer 1" xmlns="http://www.w3.org/2000/svg" viewBox="0 0 104 104"><circle id="Oval" cx="52" cy="52" r="52" style="fill:#050505"/><g id="renzo-large"><path id="Path" d="M82.06,54.8V55A29.92,29.92,0,0,1,55.39,82h-.3Z" style="fill:#ace730"/><path id="Shape" d="M65.28,25.06c-.77-.35-1.53-.7-2.3-1a30.69,30.69,0,0,0-4.77-1.41A29.93,29.93,0,0,0,52.09,22c-1,0-2,.06-3,.12a30,30,0,0,0-17.9,8.3l-1,.94a30.16,30.16,0,0,0-8.12,18C22.06,50.2,22,51.09,22,52a30.45,30.45,0,0,0,.71,6.53,31.53,31.53,0,0,0,1.41,4.65c.35.83.71,1.65,1.06,2.42a32.75,32.75,0,0,0,2.36,3.89l4.94-5,31.8-32.15,4.94-5A31.5,31.5,0,0,0,65.28,25.06ZM29.6,57.74a2,2,0,0,1-.12-.59A23.91,23.91,0,0,1,29,52.09a22.93,22.93,0,0,1,6.3-15.84l.82-.83a23,23,0,0,1,16-6.42,24,24,0,0,1,4.71.47l.7.18Z" style="fill:#ace730"/><path id="Path-2" d="M41.73,80.36c-.77-.3-1.47-.59-2.18-.89a30.06,30.06,0,0,1-4.24-2.41l41.57-42a26.28,26.28,0,0,1,2.36,4.12c.35.76.7,1.53,1,2.3Z" style="fill:#ace730"/></g></svg>