<svg id="Layer_1" data-name="Layer 1" xmlns="http://www.w3.org/2000/svg" viewBox="0 0 104 104"><circle id="Oval-Copy-7" cx="52" cy="52" r="52" style="fill:#fff"/><path d="M78.74,63.8V28.17a5.37,5.37,0,0,0-5.28-5.39H37.16A14.57,14.57,0,0,0,23,37.52a14.73,14.73,0,0,0,1.8,7.08,16.07,16.07,0,0,0,3.77,4.48A9.28,9.28,0,0,0,30,50a15.53,15.53,0,0,0,3.68,1.63V73a12.22,12.22,0,0,0,.41,2.89,9.41,9.41,0,0,0,5.59,6.42,10.82,10.82,0,0,0,3.85.8l29,.1A10.6,10.6,0,0,0,83,72.44h0A10.77,10.77,0,0,0,78.74,63.8Z" transform="translate(-1 -1)" style="fill:#ffeeda"/><path d="M79.45,72.7a7,7,0,0,1-6.91,6.85l-20-.06a10.91,10.91,0,0,0,2.55-7A11.84,11.84,0,0,0,52.7,65.4H72.53a7,7,0,0,1,6.91,7.08Z" transform="translate(-1 -1)" style="fill:#ebc28e"/><path d="M30.52,46.08a11.82,11.82,0,0,1-3.91-8.5v-.36A11,11,0,0,1,37.18,26.47H73.49a1.7,1.7,0,0,1,1.7,1.71h0V59.66a10.25,10.25,0,0,1,2,.55,14.14,14.14,0,0,1,1.51.75V28.19a5.36,5.36,0,0,0-5.28-5.41H37.16A14.75,14.75,0,0,0,28.53,49a1.38,1.38,0,0,0,1.06.45,1.76,1.76,0,0,0,1.78-1.74v-.08a2,2,0,0,0-.86-1.58Z" transform="translate(-1 -1)" style="fill:#101010"/><path d="M72.54,61.72H44.09a3.52,3.52,0,0,0-3.47,3.56v4.19a3.68,3.68,0,0,0,3.57,3.59H46.3V69.47H44.19V65.38h1.16c3.6,0,6.25,3.42,6.25,7.07a7.16,7.16,0,0,1-14.32,0V37A2.83,2.83,0,0,0,34.52,34H31.61v3.63H33.7V72.48c-.12,7.07,4.92,10.64,10.17,10.64l28.69.1a10.75,10.75,0,0,0,0-21.5Zm6.91,11a7,7,0,0,1-6.91,6.85l-20-.06a10.91,10.91,0,0,0,2.55-7A11.84,11.84,0,0,0,52.7,65.4H72.53a7,7,0,0,1,6.91,7.08ZM64.86,38.3H43.41V34.66H64.86a1.82,1.82,0,0,1,0,3.64Z" transform="translate(-1 -1)" style="fill:#101010"/><path d="M64.86,55.41H43.41V51.77H64.86a1.82,1.82,0,0,1,0,3.64Zm3.78-8.56H43.41V43.22H68.64A1.79,1.79,0,0,1,70.41,45h0a1.77,1.77,0,0,1-1.73,1.81Z" transform="translate(-1 -1)" style="fill:#101010"/></svg>