<svg id="Layer_1" data-name="Layer 1" xmlns="http://www.w3.org/2000/svg" xmlns:xlink="http://www.w3.org/1999/xlink" viewBox="0 0 104 104"><defs><mask id="mask" x="22.05" y="54.14" width="60.38" height="33.22" maskUnits="userSpaceOnUse"><g transform="translate(-1 -1)"><g id="_4u3y75u87b" data-name="4u3y75u87b"><path id="sxhtiq69ga" d="M23.05,61.18q6.69-4.66,11.66-5.91c5-1.24,2.07,6.87,12,7.87s19.39-6.92,25.87-6.2a16.31,16.31,0,0,1,10.89,5.85L53,88Z" style="fill:#fff;fill-rule:evenodd"/></g></g></mask></defs><circle id="Oval-Copy-7" cx="52" cy="52" r="52" style="fill:#fff"/><path d="M51.79,36.1l-3.6,27.57" transform="translate(-1 -1)" style="fill:none;stroke:#06070a;stroke-width:4px"/><path d="M23.05,61.18q6.69-4.66,11.66-5.91c5-1.24,2.07,6.87,12,7.87s19.39-6.92,25.87-6.2a16.35,16.35,0,0,1,10.89,5.85L53,88Z" transform="translate(-1 -1)" style="fill:#06070a"/><g style="mask:url(#mask)"><path d="M48.19,62.05,53,88" transform="translate(-1 -1)" style="fill:none;stroke:#fff3d1;stroke-width:4px"/></g><path d="M53,18,36,31.58,22.16,60.13,53,88,83.88,62.35l-16.3-35Z" transform="translate(-1 -1)" style="fill:none;stroke:#06070a;stroke-width:4px"/><path d="M36,31.58,51.43,36.1l16.15-8.76" transform="translate(-1 -1)" style="fill:none;stroke:#06070a;stroke-width:4px"/></svg>