<svg width="17" height="14" viewBox="0 0 17 14" xmlns="http://www.w3.org/2000/svg">
    <g transform="translate(.5)" fill="none" fill-rule="evenodd">
        <path d="M8.002 0c-.955 0-1.738.741-1.803 1.68a6.326 6.326 0 0 1 1.803-.26c.626 0 1.231.09 1.803.26A1.807 1.807 0 0 0 8.002 0zm5.831 5.292c.318.754.493 1.583.493 2.452h1.678c0-1.346-.97-2.438-2.17-2.452zm-1.125 6.677a6.356 6.356 0 0 1-1.443 1.194l.373.477a.937.937 0 0 0 1.475-1.153l-.405-.518zm-7.935 1.214a6.35 6.35 0 0 1-1.45-1.185l-.382.489a.936.936 0 0 0 1.475 1.153l.357-.457zM1.678 7.744c0-.87.175-1.698.493-2.452C.97 5.306 0 6.398 0 7.744h1.678z" fill="#6AC334"/>
        <rect fill="#6AC334" fill-rule="nonzero" x="2.194" y="1.936" width="11.616" height="11.616" rx="5.808"/>
        <g transform="translate(2.71 2.452)" fill-rule="nonzero">
            <rect fill="#000" width="10.583" height="10.583" rx="5.292"/>
            <rect fill="#FFEEDA" width="10.583" height="10.583" rx="5.292"/>
        </g>
        <g fill-rule="nonzero">
            <path d="M10.702 8.846V5.071a.567.567 0 0 0-.559-.57H6.298c-.83.013-1.497.709-1.497 1.561 0 .288.075.535.19.75.098.18.251.35.402.475.042.036.022.02.153.103.18.113.386.17.386.17l-.003 2.257c.005.108.015.21.043.305.085.319.3.563.594.68.123.05.26.083.409.086l3.07.01c.612 0 1.108-.509 1.108-1.138a1.142 1.142 0 0 0-.451-.914z" fill="#FFEEDA"/>
            <path d="M10.777 9.788a.742.742 0 0 1-.732.727l-2.113-.008c.168-.2.27-.46.27-.742 0-.444-.257-.75-.257-.75h2.103c.403 0 .732.337.732.75l-.003.023z" fill="#EBC28E"/>
            <path d="M5.593 6.969c-.243-.236-.413-.542-.413-.904v-.038A1.17 1.17 0 0 1 6.3 4.892h3.846c.1.005.18.077.18.182v3.333a1.077 1.077 0 0 1 .376.139V5.074a.567.567 0 0 0-.559-.57H6.298c-.83.013-1.497.709-1.497 1.561 0 .496.22.92.582 1.217.025.02.047.046.113.046a.185.185 0 0 0 .188-.192c-.003-.085-.038-.116-.09-.167z" fill="#101010"/>
            <path d="M10.045 8.625H7.03a.373.373 0 0 0-.366.378v.444a.39.39 0 0 0 .378.38h.223v-.38h-.223v-.434h.123c.381 0 .662.362.662.75 0 .344-.306.783-.817.747-.454-.03-.7-.444-.7-.747V5.998a.305.305 0 0 0-.3-.308h-.301v.385h.223v3.69c-.013.75.521 1.128 1.078 1.128l3.038.01c.611 0 1.108-.508 1.108-1.138 0-.629-.5-1.14-1.11-1.14zm.732 1.163a.742.742 0 0 1-.732.727l-2.113-.008c.168-.2.27-.46.27-.742 0-.444-.257-.75-.257-.75h2.103c.403 0 .732.337.732.75l-.003.023zM9.233 6.145H6.959V5.76h2.274a.19.19 0 0 1 .188.192.19.19 0 0 1-.188.193z" fill="#101010"/>
            <path d="M9.233 7.958H6.959v-.386h2.274a.19.19 0 0 1 .188.193.19.19 0 0 1-.188.193zM9.634 7.051H6.96v-.385h2.673a.19.19 0 0 1 .188.193.188.188 0 0 1-.186.192z" fill="#101010"/>
        </g>
    </g>
</svg>
