<svg id="Layer_1" data-name="Layer 1" xmlns="http://www.w3.org/2000/svg" xmlns:xlink="http://www.w3.org/1999/xlink" viewBox="0 0 42.3 37"><defs><style>.cls-1,.cls-2{fill:#6ac334;}.cls-1{fill-rule:evenodd;}.cls-3{fill:url(#linear-gradient);}</style><linearGradient id="linear-gradient" x1="-256.18" y1="382.49" x2="-256.21" y2="378.04" gradientTransform="matrix(7.7, 0, 0, -7.7, 2003.29, 2966.91)" gradientUnits="userSpaceOnUse"><stop offset="0" stop-color="#fff"/><stop offset="1" stop-color="#fff"/></linearGradient></defs><path class="cls-1" d="M30,10.5a4.77,4.77,0,0,0-4.76,4.44,16.8,16.8,0,0,1,9.53,0A4.78,4.78,0,0,0,30,10.5Zm15.41,14A16.63,16.63,0,0,1,46.72,31h4.43c0-3.56-2.56-6.45-5.73-6.48Zm-3,17.64a16.75,16.75,0,0,1-3.81,3.16l1,1.26a2.48,2.48,0,0,0,3.9-3Zm-21,3.21a16.51,16.51,0,0,1-3.83-3.13l-1,1.29a2.47,2.47,0,0,0,3.89,3ZM13.29,31a16.62,16.62,0,0,1,1.3-6.48c-3.17,0-5.74,2.92-5.74,6.48Z" transform="translate(-8.85 -10.5)"/><path class="cls-2" d="M30,15.62h0A15.35,15.35,0,0,1,45.35,31h0A15.35,15.35,0,0,1,30,46.32h0A15.35,15.35,0,0,1,14.65,31h0A15.35,15.35,0,0,1,30,15.62Z" transform="translate(-8.85 -10.5)"/><path d="M30,17h0A14,14,0,0,1,44,31h0A14,14,0,0,1,30,45h0A14,14,0,0,1,16,31h0A14,14,0,0,1,30,17Z" transform="translate(-8.85 -10.5)"/><path d="M30,17h0A14,14,0,0,1,44,31h0A14,14,0,0,1,30,45h0A14,14,0,0,1,16,31h0A14,14,0,0,1,30,17Z" transform="translate(-8.85 -10.5)"/><path class="cls-3" d="M39.46,33.14l0,0,0,0-7,7a3.15,3.15,0,0,1-4.44,0L26,38.3a.34.34,0,0,1,0-.49.24.24,0,0,1,.15-.09,21,21,0,0,0,5.08-2.23q4.66-3,8.28-2.35ZM38,27.36a3,3,0,0,1,2.33,3.49Q36,28.6,30,32.49c-3,1.93-5.5,2.72-7.51,2.39S20.05,32.07,20,31.42q3.32,1.68,8.91-1.93,5.21-3.36,9.11-2.14Zm-5.64-5.63,1.83,1.82a.35.35,0,0,1,0,.5.4.4,0,0,1-.18.1,18.34,18.34,0,0,0-6.36,2.34q-4.08,2.63-6.95,2.45l7.21-7.21A3.13,3.13,0,0,1,32.34,21.73Z" transform="translate(-8.85 -10.5)"/></svg>