<svg width="16" height="14" viewBox="0 0 16 14" xmlns="http://www.w3.org/2000/svg">
    <g transform="translate(-.004)" fill="none" fill-rule="evenodd">
        <path d="M8.002 0c-.955 0-1.738.741-1.803 1.68a6.326 6.326 0 0 1 1.803-.26c.626 0 1.231.09 1.803.26A1.807 1.807 0 0 0 8.002 0zm5.831 5.292c.318.754.493 1.583.493 2.452h1.678c0-1.346-.97-2.438-2.17-2.452zm-1.125 6.677a6.356 6.356 0 0 1-1.443 1.194l.373.477a.937.937 0 0 0 1.475-1.153l-.405-.518zm-7.935 1.214a6.35 6.35 0 0 1-1.45-1.185l-.382.489a.936.936 0 0 0 1.475 1.153l.357-.457zM1.678 7.744c0-.87.175-1.698.493-2.452C.97 5.306 0 6.398 0 7.744h1.678z" fill="#6AC334"/>
        <rect fill="#6AC334" fill-rule="nonzero" x="2.194" y="1.936" width="11.616" height="11.616" rx="5.808"/>
        <g transform="translate(2.71 2.452)" fill="#000" fill-rule="nonzero">
            <rect width="10.583" height="10.583" rx="5.292"/>
            <rect width="10.583" height="10.583" rx="5.292"/>
        </g>
        <g fill="#FFF" fill-rule="nonzero">
            <path d="m9.205 3.72-1.235.7a.71.71 0 0 0-.075 1.187l1.261.94a.444.444 0 0 1-.047.743l-1.138.644a.71.71 0 0 0-.074 1.189l1.201.892a.491.491 0 0 1 .198.394v.037c0 .113.122.184.22.128l1.242-.708a.71.71 0 0 0 .069-1.189l-1.26-.927a.444.444 0 0 1 .043-.743l1.15-.657a.71.71 0 0 0 .07-1.189l-1.205-.887a.491.491 0 0 1-.2-.395v-.03a.147.147 0 0 0-.22-.129z"/>
            <path d="m6.497 4.83-1.235.699a.71.71 0 0 0-.075 1.187l1.26.941a.444.444 0 0 1-.046.743l-1.138.644a.71.71 0 0 0-.074 1.188l1.2.893a.491.491 0 0 1 .199.394v.037c0 .113.122.184.22.128l1.242-.708a.71.71 0 0 0 .069-1.19l-1.26-.926a.444.444 0 0 1 .042-.743l1.15-.658a.71.71 0 0 0 .07-1.188l-1.205-.887a.491.491 0 0 1-.2-.396v-.03a.147.147 0 0 0-.22-.128z"/>
        </g>
    </g>
</svg>
