<svg width="51" height="38" viewBox="0 0 51 38" xmlns="http://www.w3.org/2000/svg">
    <defs>
        <filter x="-6.2%" y="-43.8%" width="112.5%" height="187.5%" filterUnits="objectBoundingBox" id="sbcf7avc4a">
            <feOffset in="SourceAlpha" result="shadowOffsetOuter1"/>
            <feGaussianBlur stdDeviation="3.5" in="shadowOffsetOuter1" result="shadowBlurOuter1"/>
            <feColorMatrix values="0 0 0 0 0.670588235 0 0 0 0 0.890196078 0 0 0 0 0.741176471 0 0 0 1 0" in="shadowBlurOuter1" result="shadowMatrixOuter1"/>
            <feMerge>
                <feMergeNode in="shadowMatrixOuter1"/>
                <feMergeNode in="SourceGraphic"/>
            </feMerge>
        </filter>
    </defs>
    <g transform="translate(7 7)" filter="url(#sbcf7avc4a)" fill="#E4FFE4" fill-rule="nonzero" opacity=".7">
        <path d="M31.832 13.257c-.008-.017-.025-.025-.033-.042-.033.034-.075.067-.108.1-.821.647-1.61 1.336-2.455 1.941-1.867 1.327-3.9 2.356-6.131 2.929-1.643.423-3.244.962-4.662 1.924-.042.033-.15.017-.2-.016-1.186-.797-2.488-1.32-3.857-1.693-1.12-.307-2.24-.614-3.302-1.086-2.206-.98-4.18-2.323-5.99-3.924-.05-.042-.099-.083-.14-.125.39.398.796.772 1.227 1.128 2.323 1.925 4.878 3.41 7.815 4.198 1.344.357 2.622.888 3.783 1.668.075.05.141.107.207.157-.016.033-.024.05-.033.058-.025.025-.041.05-.074.067-1.03.82-1.71 1.875-2.157 3.094-.034.1-.025.158.066.207.041.025.075.05.116.075.174.124.2.116.282-.075.058-.14.108-.282.158-.423a6.196 6.196 0 0 1 1.842-2.613c.116-.1.207-.133.323-.008.315.332.655.639.946.987.498.589.788 1.302 1.053 2.024.083.232.1.224.316.091.157-.1.232-.199.107-.373-.033-.05-.05-.116-.074-.182a6.531 6.531 0 0 0-2.024-2.813c-.042-.033-.075-.083-.117-.116.025-.033.034-.05.05-.058.05-.033.091-.075.141-.1.946-.638 1.983-1.094 3.07-1.451.78-.257 1.576-.465 2.347-.747 2.133-.771 4.04-1.941 5.8-3.36.58-.464 1.128-.962 1.692-1.443h.016zM13.74 14.883h-.017c.034.224.05.448.092.68.224 1.294.937 2.257 2.015 2.97.059.033.166.058.208.033.058-.041.091-.133.091-.215.008-.092-.016-.183-.025-.274-.091-1.294-.639-2.348-1.642-3.17a5.802 5.802 0 0 0-.457-.331c-.149-.091-.257-.025-.265.15v.157zm9.258.008c-.041-.108-.05-.282-.124-.315-.083-.033-.233.033-.324.1-1.286.887-1.916 2.131-1.983 3.675 0 .074.042.174.1.215.041.033.15 0 .207-.033 1.303-.854 2.008-2.066 2.124-3.642zm-11.025 6.313c1.336.017 2.414-.514 3.293-1.485.058-.066.075-.174.116-.265-.09-.033-.182-.108-.273-.108-.382 0-.772-.008-1.153.033-1.07.133-1.925.697-2.63 1.485-.133.15-.075.274.116.299.174.025.348.025.523.033l.008.008zm10.08-1.866h-.532c-.074.041-.165.066-.199.132-.025.042.025.15.075.2 1.004 1.153 2.281 1.642 3.8 1.51.082 0 .199-.059.215-.117.017-.058-.025-.174-.083-.232-.88-.97-1.95-1.518-3.285-1.493h.008zM13 16.932c.05-1.261-.465-2.273-1.378-3.111-.058-.05-.165-.116-.207-.1-.066.034-.116.141-.124.216 0 .373-.017.747.016 1.112.108 1.028.63 1.833 1.377 2.513.158.141.282.092.307-.124.017-.166 0-.34 0-.506h.009zm14.053 2.738c.381-.059.771-.117 1.153-.183.075-.017.174-.075.19-.133.017-.058-.049-.157-.107-.207-1.12-.92-2.39-1.203-3.791-.83-.067.017-.15.083-.166.133-.009.058.041.15.1.19.763.615 1.609 1.005 2.62 1.021v.009zm-17.413 0c1.012-.009 1.875-.407 2.638-1.03.05-.04.108-.132.091-.19-.008-.05-.1-.116-.166-.133-1.402-.373-2.663-.1-3.774.822-.059.05-.125.149-.117.215 0 .05.117.116.191.133.374.066.755.116 1.137.174v.009zm15.779-5.235c0-.158.016-.315 0-.465-.009-.091-.075-.166-.117-.249-.083.042-.182.067-.248.125-1.046.946-1.477 2.14-1.353 3.534 0 .091.058.216.116.24.058.025.183-.041.25-.1.895-.829 1.393-1.84 1.36-3.077l-.008-.008zM8.77 13.53h-.017l.05.564c.116 1.012.63 1.808 1.394 2.455.157.133.273.092.273-.124 0-.373 0-.755-.05-1.128-.149-.938-.655-1.676-1.377-2.282-.05-.041-.14-.066-.182-.041-.05.025-.083.116-.091.174-.017.124 0 .249 0 .373v.009zm19.171-.009c0-.132.009-.265 0-.39-.016-.174-.132-.232-.265-.116a5.197 5.197 0 0 0-.44.415c-.78.838-1.086 1.833-1.003 2.97 0 .075.05.182.1.207.057.017.157-.033.215-.083.912-.788 1.41-1.775 1.393-3.003zM7.177 17.87c.854 0 1.518-.215 2.14-.58.058-.034.125-.116.125-.175 0-.058-.083-.124-.15-.157a4.063 4.063 0 0 0-1.592-.365c-.739-.009-1.41.215-2.041.58-.067.034-.133.117-.133.183 0 .05.091.116.15.15.522.223 1.061.356 1.493.356l.008.008zm22.332 0c.465 0 1.012-.132 1.543-.365.059-.025.133-.1.141-.157 0-.05-.066-.125-.116-.158-1.178-.697-2.397-.78-3.65-.232-.066.025-.14.1-.15.15 0 .057.067.14.125.173.622.365 1.278.59 2.116.581l-.009.008zM8.081 14.194c-.016-.207-.025-.381-.05-.556-.108-.804-.497-1.476-1.045-2.057-.124-.133-.216-.091-.257.083-.025.124-.042.257-.058.382-.133 1.153.249 2.123 1.045 2.953a.262.262 0 0 0 .183.066c.041-.008.083-.09.09-.149.042-.249.067-.506.092-.722zm22-1.734c-.032-.248-.057-.506-.09-.754-.009-.067-.059-.166-.108-.183-.05-.017-.141.041-.191.091-.871.93-1.211 2.016-.979 3.269.008.066.058.166.108.174.05.017.15-.033.19-.091.664-.705 1.046-1.535 1.063-2.522l.008.016zM5.17 16.07c.581.007 1.137-.15 1.668-.407.066-.034.116-.108.174-.166-.058-.05-.1-.125-.158-.158-1.136-.589-2.273-.589-3.418-.033-.058.033-.124.1-.14.166 0 .041.074.116.132.15.548.281 1.12.455 1.75.447H5.17zm26.348 0c.647.007 1.228-.167 1.775-.457.058-.033.125-.1.125-.15 0-.05-.075-.124-.125-.149-1.145-.572-2.29-.564-3.434.025-.067.033-.15.108-.141.158 0 .058.083.124.15.157.53.258 1.078.415 1.658.407l-.008.008zm5.127-8.363c0-.166-.058-.19-.224-.1-1.137.623-1.867 1.56-2.215 2.804-.017.067 0 .15 0 .216.075-.017.157 0 .216-.041 1.12-.623 1.858-1.56 2.198-2.796a.477.477 0 0 0 .017-.083h.008zm-36.46-.15c-.117 0-.15.075-.1.241.34 1.228 1.053 2.149 2.165 2.78.075.04.166.032.249.049 0-.083.017-.166 0-.24-.348-1.22-1.07-2.15-2.182-2.763a.99.99 0 0 0-.133-.066zm4.587 3.56c.008.846.332 1.56.846 2.198.042.05.116.091.174.083.042 0 .092-.091.1-.141.05-.24.091-.473.116-.714.091-.929-.232-1.725-.805-2.439-.033-.041-.124-.09-.157-.074-.05.016-.1.1-.116.157-.058.316-.108.63-.158.946v-.017zm27.17 0c-.05-.316-.092-.631-.159-.946-.008-.058-.066-.15-.116-.158-.05-.008-.132.042-.174.091-.755.93-.987 1.975-.68 3.136.016.058.066.133.124.15.042.016.116-.042.158-.083.506-.64.838-1.353.846-2.199v.008zm1.824-1.643c-.066-.365-.133-.738-.216-1.103-.041-.183-.149-.2-.257-.059-.746.971-.929 2.041-.572 3.211.058.183.158.2.274.041.456-.622.746-1.294.771-2.09zm-30.819 0c.025.796.315 1.468.771 2.09.034.05.117.108.15.1.058-.017.108-.091.124-.15.349-1.152.166-2.214-.564-3.177-.033-.05-.116-.107-.15-.1-.049.017-.107.092-.124.15-.074.365-.14.73-.207 1.087zm.017 3.542a3.475 3.475 0 0 0-1.328.266c-.058.025-.14.083-.14.132 0 .05.066.125.115.158 1.012.63 2.083.73 3.194.29.058-.024.141-.083.141-.132 0-.05-.066-.125-.116-.158-.556-.348-1.161-.564-1.866-.556zm30.205 1.12c.688 0 1.452-.232 1.941-.572.05-.033.116-.116.108-.158-.008-.05-.091-.108-.15-.133-1.103-.431-2.165-.34-3.177.282-.058.034-.14.117-.124.15.016.058.091.124.158.15a3.72 3.72 0 0 0 1.252.273l-.008.008zM2.19 12.278c.274-.042.556-.075.83-.133.174-.033.19-.124.058-.24-.855-.739-1.825-1.004-2.929-.739-.058.017-.132.058-.15.1-.007.041.042.116.084.157.605.515 1.294.822 2.107.847v.008zm32.32 0c.814-.025 1.502-.324 2.108-.846.041-.042.108-.125.091-.158-.025-.05-.1-.1-.166-.116-.157-.033-.323-.05-.48-.075-.938-.108-1.726.216-2.432.813-.14.116-.116.216.067.25.265.049.54.082.813.124v.008z"/>
        <path d="M31.832 13.257c-.564.481-1.12.979-1.692 1.443-1.759 1.41-3.667 2.589-5.807 3.36-.772.282-1.568.49-2.348.747-1.087.357-2.124.813-3.07 1.452-.05.033-.099.066-.14.1-.017.007-.025.032-.05.057.041.042.074.083.116.116a6.531 6.531 0 0 1 2.024 2.813c.025.058.042.124.075.182.116.174.05.274-.108.373-.216.133-.232.141-.315-.09-.266-.723-.556-1.428-1.054-2.025-.299-.348-.63-.655-.946-.987-.116-.125-.207-.091-.323.008a6.196 6.196 0 0 0-1.842 2.613c-.05.141-.1.282-.158.423-.082.191-.107.2-.282.075-.033-.025-.074-.058-.116-.075-.091-.05-.1-.107-.066-.207.448-1.22 1.128-2.281 2.157-3.094a.537.537 0 0 0 .075-.067c.008-.008.008-.025.033-.058-.067-.05-.133-.108-.208-.157-1.161-.78-2.439-1.311-3.783-1.668-2.936-.788-5.5-2.273-7.814-4.198-.423-.356-.838-.73-1.228-1.128.05.042.1.083.14.125 1.81 1.6 3.776 2.945 5.99 3.924 1.062.472 2.182.788 3.302 1.086 1.37.374 2.672.896 3.858 1.693.05.033.157.05.199.016 1.419-.962 3.02-1.501 4.662-1.924 2.232-.573 4.264-1.602 6.13-2.929.847-.605 1.644-1.286 2.457-1.941.041-.033.074-.066.107-.1.009.017.025.025.034.042h-.009z"/>
        <path d="M13.739 14.883v-.158c.017-.166.116-.24.265-.15.158.1.316.217.457.333 1.012.813 1.551 1.875 1.642 3.169 0 .091.033.182.025.274-.008.074-.041.174-.091.215-.042.033-.15 0-.208-.033-1.078-.713-1.791-1.676-2.015-2.97a8.952 8.952 0 0 1-.092-.68h.017zM22.997 14.891c-.116 1.576-.821 2.788-2.124 3.642-.058.033-.166.066-.207.033-.058-.041-.1-.14-.1-.215.067-1.544.697-2.788 1.983-3.676.091-.066.249-.132.324-.1.074.034.083.2.124.316zM11.972 21.204c-.174-.008-.349 0-.523-.033-.199-.033-.249-.158-.116-.299.705-.796 1.551-1.352 2.63-1.484.382-.05.763-.042 1.153-.034.091 0 .183.067.274.108-.042.091-.058.2-.116.266-.88.97-1.966 1.51-3.294 1.485l-.008-.009zM22.051 19.338c1.336-.033 2.406.514 3.286 1.493.05.058.107.174.083.232-.025.058-.142.116-.216.116-1.518.133-2.796-.356-3.8-1.51-.041-.05-.1-.157-.074-.199.033-.058.124-.09.199-.132.016-.009.041 0 .058 0h.473-.009zM13 16.932c0 .166.017.34 0 .506-.024.216-.149.265-.306.124-.747-.68-1.27-1.485-1.377-2.513-.042-.365-.025-.739-.017-1.112 0-.075.058-.182.124-.216.042-.024.15.042.208.1.904.838 1.418 1.85 1.377 3.11H13zM27.054 19.67c-1.012-.017-1.858-.407-2.622-1.02-.05-.042-.108-.134-.1-.192.01-.05.1-.116.167-.132 1.402-.374 2.671-.092 3.79.83.059.049.125.149.109.207-.017.058-.116.124-.191.132-.382.067-.772.125-1.153.183v-.008zM9.64 19.67c-.38-.059-.754-.108-1.136-.175-.074-.016-.182-.083-.19-.132 0-.067.057-.166.116-.216 1.12-.913 2.38-1.195 3.774-.821.067.016.158.074.166.132.008.058-.041.15-.091.191-.763.622-1.626 1.012-2.638 1.029v-.008zM25.42 14.435c.033 1.236-.465 2.248-1.361 3.078-.066.058-.183.124-.249.1-.058-.026-.108-.15-.116-.241-.124-1.394.315-2.58 1.352-3.534.067-.059.166-.083.25-.125.04.083.107.166.115.249.017.158 0 .315 0 .465l.009.008zM8.77 13.53c0-.124-.009-.248 0-.373 0-.066.041-.149.09-.174.042-.025.142 0 .183.042.714.605 1.228 1.335 1.378 2.28.058.374.058.756.05 1.13 0 .215-.117.256-.274.124-.764-.656-1.278-1.444-1.394-2.456-.025-.19-.033-.373-.05-.564h.017v-.008zM27.941 13.522c.017 1.228-.48 2.207-1.393 3.003-.058.05-.166.1-.216.083-.05-.016-.091-.132-.1-.207-.09-1.128.225-2.124 1.004-2.97.141-.15.282-.29.44-.415.133-.116.249-.058.265.116.009.133 0 .258 0 .39zM7.177 17.87c-.44 0-.98-.125-1.493-.357-.067-.025-.158-.1-.15-.15 0-.066.067-.149.133-.182.63-.365 1.31-.59 2.04-.58.557 0 1.088.14 1.594.364.066.025.14.1.149.158 0 .058-.066.14-.125.174a3.996 3.996 0 0 1-2.14.58l-.008-.008zM29.51 17.87c-.83 0-1.494-.216-2.116-.581-.058-.034-.124-.116-.124-.175 0-.058.082-.124.149-.149 1.253-.547 2.472-.464 3.65.232.05.034.124.108.116.158-.008.058-.083.133-.14.158-.524.232-1.071.365-1.544.365l.008-.009zM8.081 14.194c-.025.224-.05.473-.091.722 0 .058-.05.141-.091.15a.22.22 0 0 1-.183-.067c-.788-.83-1.17-1.8-1.045-2.953.016-.133.025-.258.058-.382.033-.174.133-.207.257-.083.556.58.937 1.244 1.045 2.057.025.175.034.349.05.556zM30.082 12.46c-.017.988-.398 1.809-1.062 2.522-.05.05-.141.1-.19.092-.05-.017-.1-.108-.109-.175-.232-1.252.108-2.347.98-3.268.049-.05.14-.108.19-.091.05.016.091.116.108.182.041.249.066.506.091.755l-.008-.017zM5.17 16.07c-.631.007-1.204-.167-1.751-.449-.058-.033-.133-.1-.133-.15.008-.057.075-.132.141-.165 1.145-.564 2.281-.556 3.418.033.066.033.108.1.158.158-.058.058-.1.132-.175.166-.522.257-1.078.414-1.667.406h.008zM31.517 16.07c-.572.007-1.128-.15-1.66-.407-.066-.034-.148-.1-.148-.158 0-.05.082-.124.14-.158 1.137-.589 2.282-.597 3.435-.024.058.024.124.1.124.149 0 .05-.066.124-.124.15-.547.281-1.128.464-1.775.455l.008-.008zM36.644 7.707c0 .016-.008.05-.017.083-.34 1.236-1.07 2.173-2.198 2.796-.058.033-.141.024-.216.041 0-.075-.025-.15 0-.216.349-1.244 1.079-2.181 2.215-2.804.158-.09.224-.058.224.1h-.008zM.183 7.558l.133.066c1.112.622 1.834 1.543 2.182 2.762.017.075 0 .158 0 .241-.083-.017-.183-.017-.249-.058C1.146 9.947.424 9.018.084 7.789c-.05-.165-.017-.248.1-.24v.009zM4.771 11.116c.05-.315.1-.63.158-.945a.25.25 0 0 1 .116-.158c.041-.016.124.033.157.075.573.713.896 1.51.805 2.439a6.73 6.73 0 0 1-.116.713c-.008.058-.058.141-.1.141-.058 0-.14-.033-.174-.083-.514-.638-.838-1.352-.846-2.198v.016zM31.94 11.116c-.008.847-.34 1.552-.846 2.199-.033.041-.116.1-.158.083-.05-.017-.108-.091-.124-.15-.307-1.16-.075-2.206.68-3.135.042-.05.125-.1.174-.092.05.009.1.1.116.158.059.315.1.63.158.946v-.009zM33.765 9.474c-.025.796-.315 1.468-.771 2.09-.116.158-.216.142-.274-.041-.349-1.17-.166-2.24.572-3.21.108-.142.216-.117.257.058.083.365.142.738.216 1.103zM2.946 9.474c.066-.365.133-.73.207-1.087.017-.058.075-.133.125-.15.033-.016.116.05.15.1.73.963.912 2.025.563 3.178-.016.058-.074.132-.124.149-.033.008-.116-.05-.15-.1-.456-.622-.746-1.294-.771-2.09zM2.963 13.016c.705-.008 1.31.208 1.866.556.058.033.125.108.116.158 0 .05-.083.108-.14.132-1.112.448-2.183.349-3.195-.29-.058-.033-.124-.108-.116-.158 0-.05.083-.107.141-.132.44-.183.896-.282 1.328-.266zM33.168 14.136a3.887 3.887 0 0 1-1.253-.274.308.308 0 0 1-.157-.149c-.009-.033.074-.116.124-.15 1.012-.63 2.074-.721 3.177-.281.058.025.141.074.15.132.008.05-.058.125-.108.158-.481.34-1.245.572-1.941.572l.008-.008zM2.191 12.278c-.813-.025-1.502-.332-2.107-.846-.042-.042-.091-.116-.083-.158.008-.041.091-.091.15-.1 1.103-.257 2.073 0 2.928.739.132.116.116.207-.058.24-.274.059-.548.092-.83.133v-.008zM34.512 12.278c-.274-.042-.54-.066-.813-.125-.183-.033-.208-.132-.067-.248.697-.598 1.494-.921 2.431-.813.166.016.324.033.481.074a.268.268 0 0 1 .166.116c.017.034-.041.117-.091.158-.606.514-1.294.821-2.107.846v-.008z"/>
        <g>
            <path d="M8.728 8.885A4.443 4.443 0 0 1 4.29 4.447C4.29 1.999 6.28 0 8.728 0a4.443 4.443 0 0 1 4.439 4.438 4.443 4.443 0 0 1-4.439 4.439v.008zm0-8.105A3.664 3.664 0 0 0 5.07 4.438a3.664 3.664 0 0 0 3.658 3.659 3.664 3.664 0 0 0 3.659-3.659A3.664 3.664 0 0 0 8.728.78zM18.351 8.885a4.443 4.443 0 0 1-4.438-4.438C13.913 1.999 15.904 0 18.351 0a4.443 4.443 0 0 1 4.439 4.438 4.443 4.443 0 0 1-4.439 4.439v.008zm0-8.105a3.664 3.664 0 0 0-3.658 3.658 3.664 3.664 0 0 0 3.658 3.659 3.664 3.664 0 0 0 3.659-3.659A3.664 3.664 0 0 0 18.35.78z"/>
            <path d="M18.351 14.659a4.443 4.443 0 0 1-4.438-4.438 4.443 4.443 0 0 1 4.438-4.439 4.443 4.443 0 0 1 4.439 4.439 4.443 4.443 0 0 1-4.439 4.438zm0-8.105a3.664 3.664 0 0 0-3.658 3.658 3.664 3.664 0 0 0 3.658 3.659 3.664 3.664 0 0 0 3.659-3.659 3.664 3.664 0 0 0-3.659-3.658zM27.983 8.885a4.443 4.443 0 0 1-4.438-4.438c0-2.448 1.99-4.447 4.438-4.447a4.443 4.443 0 0 1 4.438 4.438 4.443 4.443 0 0 1-4.438 4.439v.008zm0-8.105a3.664 3.664 0 0 0-3.659 3.658 3.664 3.664 0 0 0 3.659 3.659 3.664 3.664 0 0 0 3.658-3.659A3.664 3.664 0 0 0 27.983.78z"/>
            <path d="M13.54 12.162a4.443 4.443 0 0 1-4.438-4.439 4.443 4.443 0 0 1 4.438-4.438 4.443 4.443 0 0 1 4.438 4.438 4.443 4.443 0 0 1-4.438 4.439zm0-8.097A3.664 3.664 0 0 0 9.88 7.723a3.664 3.664 0 0 0 3.659 3.659 3.664 3.664 0 0 0 3.658-3.659 3.664 3.664 0 0 0-3.658-3.658zM23.163 12.162a4.443 4.443 0 0 1-4.438-4.439 4.443 4.443 0 0 1 4.438-4.438 4.443 4.443 0 0 1 4.438 4.438 4.443 4.443 0 0 1-4.438 4.439zm0-8.097a3.664 3.664 0 0 0-3.658 3.658 3.664 3.664 0 0 0 3.658 3.659 3.664 3.664 0 0 0 3.659-3.659 3.664 3.664 0 0 0-3.659-3.658z"/>
            <path d="m12.279 7.101-.622-.473a3.671 3.671 0 0 0 0-4.388l.622-.473a4.455 4.455 0 0 1 0 5.326v.008zM18.351 8.877c-.954 0-1.9-.316-2.663-.888l.465-.63c.63.472 1.41.73 2.198.73v.788zm3.56-1.776-.623-.473a3.671 3.671 0 0 0 0-4.388l.622-.473a4.455 4.455 0 0 1 0 5.326v.008zM27.983 8.877c-.954 0-1.9-.316-2.663-.888l.473-.63c.63.472 1.41.73 2.198.73v.78l-.008.008z"/>
        </g>
    </g>
</svg>
